<svg xmlns="http://www.w3.org/2000/svg" id="Layer_1" viewBox="0 0 32 32" width="32" height="32"><style>.st0{fill:#f1f1f1}</style><path d="M22 0H10C4.5 0 0 4.5 0 10v12c0 5.5 4.5 10 10 10h12c5.5 0 10-4.5 10-10V10c0-5.5-4.5-10-10-10zM10 29c-3.9 0-7-3.1-7-7V10c0-3.9 3.1-7 7-7h12c3.9 0 7 3.1 7 7v12c0 3.9-3.1 7-7 7H10z" class="st0"/><path d="M23.8 10.6v1.1c0 .1 0 .1-.1.1h-5.1c-.1 0-.1 0-.1-.1v-1.1c0-.1.1-.1.1-.1h5.1l.1.1zm1.8 5.9c-.2-2.2-2.1-3.9-4.3-3.7h-.1c-.6 0-1.3.1-1.9.4-1.6.7-2.7 2.3-2.5 4.1v.7c0 .8.2 1.7.7 2.4.9 1.2 2.3 1.9 3.8 1.9 1 0 1.9-.2 2.7-.7 1-.9 1.6-1.6 1.6-2.1 0-.1 0-.2-.1-.2h-2.3c-.4.7-1.1 1.1-1.8 1-.2 0-.4 0-.5-.1-1-.2-1.7-1.1-1.7-2.1h6.4c.1 0 .1 0 .1-.1v-.8c0-.2 0-.4-.1-.7zm-6.3.1c0-.2.1-.3.1-.5.2-.8 1-1.4 1.9-1.3.2 0 .4 0 .7.1.8.2 1.3.9 1.3 1.7h-4zm-4.9-1.1c.9-.5 1.5-1.4 1.4-2.4 0-.2 0-.5-.1-.7-.4-1.7-1.6-2.5-3.5-2.5H6.4c-.1 0-.1 0-.1.1v11.9s0 .1.1.1h4.5c1 0 1.9 0 2.9-.2 1.5-.4 2.5-1.8 2.5-3.4 0-1.3-.7-2.5-1.9-2.9zM8.7 12h2.9c1.2 0 1.8.4 1.8 1.3 0 .2 0 .4-.1.6-.2.5-.9.7-2.2.7H8.7V12zm4.9 6.2c0 1.1-.6 1.6-1.7 1.6H8.7v-3.2h2.9c1.3 0 1.9.5 1.9 1.4v.2z" class="st0"/></svg>