<?xml version="1.0" encoding="utf-8"?>
<!-- Generator: Adobe Illustrator 24.0.3, SVG Export Plug-In . SVG Version: 6.00 Build 0)  -->
<svg version="1.1" id="Layer_1" xmlns="http://www.w3.org/2000/svg" xmlns:xlink="http://www.w3.org/1999/xlink" x="0px" y="0px"
	 viewBox="0 0 32 32" style="enable-background:new 0 0 32 32;" xml:space="preserve">
<style type="text/css">
	.st0{fill:#F1F1F1;}
</style>
<title></title>
<g id="Behance">
</g>
<g>
	<g>
		<path class="st0" d="M22,0H10C4.5,0,0,4.5,0,10v12c0,5.5,4.5,10,10,10h12c5.5,0,10-4.5,10-10V10C32,4.5,27.5,0,22,0z M10,29
			c-3.9,0-7-3.1-7-7V10c0-3.9,3.1-7,7-7h12c3.9,0,7,3.1,7,7v12c0,3.9-3.1,7-7,7H10z"/>
		<path class="st0" d="M23.8,10.6v1.1c0,0.1,0,0.1-0.1,0.1h-5.1c-0.1,0-0.1,0-0.1-0.1v-1.1c0-0.1,0.1-0.1,0.1-0.1h5.1
			C23.8,10.6,23.8,10.6,23.8,10.6z"/>
		<path class="st0" d="M25.6,16.5c-0.2-2.2-2.1-3.9-4.3-3.7c0,0-0.1,0-0.1,0c-0.6,0-1.3,0.1-1.9,0.4c-1.6,0.7-2.7,2.3-2.5,4.1v0.7
			c0,0.8,0.2,1.7,0.7,2.4c0.9,1.2,2.3,1.9,3.8,1.9c1,0,1.9-0.2,2.7-0.7c1-0.9,1.6-1.6,1.6-2.1c0-0.1,0-0.2-0.1-0.2h-2.3
			c-0.4,0.7-1.1,1.1-1.8,1c-0.2,0-0.4,0-0.5-0.1c-1-0.2-1.7-1.1-1.7-2.1h6.4c0.1,0,0.1,0,0.1-0.1v-0.8C25.7,17,25.7,16.8,25.6,16.5z
			 M19.3,16.6c0-0.2,0.1-0.3,0.1-0.5c0.2-0.8,1-1.4,1.9-1.3c0.2,0,0.4,0,0.7,0.1c0.8,0.2,1.3,0.9,1.3,1.7H19.3z"/>
		<path class="st0" d="M14.4,15.5c0.9-0.5,1.5-1.4,1.4-2.4c0-0.2,0-0.5-0.1-0.7c-0.4-1.7-1.6-2.5-3.5-2.5H6.4c-0.1,0-0.1,0-0.1,0.1
			v11.9c0,0,0,0.1,0.1,0.1c0,0,0,0,0,0h4.5c1,0,1.9,0,2.9-0.2c1.5-0.4,2.5-1.8,2.5-3.4v0C16.3,17.1,15.6,15.9,14.4,15.5z M8.7,12
			h2.9c1.2,0,1.8,0.4,1.8,1.3c0,0.2,0,0.4-0.1,0.6c-0.2,0.5-0.9,0.7-2.2,0.7H8.7V12z M13.6,18.2c0,1.1-0.6,1.6-1.7,1.6H8.7v-3.2h2.9
			c1.3,0,1.9,0.5,1.9,1.4V18.2z"/>
	</g>
</g>
</svg>
