<?xml version="1.0" encoding="utf-8"?>
<!-- Generator: Adobe Illustrator 24.0.3, SVG Export Plug-In . SVG Version: 6.00 Build 0)  -->
<svg version="1.1" id="Capa_1" xmlns="http://www.w3.org/2000/svg" xmlns:xlink="http://www.w3.org/1999/xlink" x="0px" y="0px"
	 viewBox="0 0 512 512" style="enable-background:new 0 0 512 512;" xml:space="preserve">
<style type="text/css">
	.st0{fill:#F1F1F1;}
	.st1{fill:#F2F1F1;}
</style>
<g>
	<path class="st0" d="M256,5.9C118.2,5.9,5.9,118.3,5.9,256c0,137.8,112.5,250.1,250.1,250.1c137.8,0,250.1-112.4,250.1-250.1
		S393.8,5.9,256,5.9z M425.6,114.8c31.3,37.4,50.3,85.4,51.1,137.7c-39.2-9.2-82.6-9.8-126.9-1.7c-11.5,2.1-23.1,4.8-34.5,8
		c-3.8-10.4-7.8-20.6-12.1-30.9c-4.4-10.4-9-20.6-13.9-30.7C342.1,177.1,399.2,147.2,425.6,114.8z M256,35.2
		c57.5,0,109.9,22.1,149.2,58.1c-15.3,20.9-59,51.4-129.2,77.7c-24.5-45.6-53.8-87.5-87.7-125.2C209.6,38.9,232.4,35.2,256,35.2z
		 M159.2,57.6c34.6,37,64.4,78.5,88.9,123.2c-73,23.6-146.9,33.2-207.6,27.1C55.3,141.7,99.8,86.7,159.2,57.6z M35.2,256
		c0-6.4,0.3-12.9,0.9-19.2c13.4,1.4,27.4,2.1,41.8,2.1c57,0,121.1-10.9,183.9-31.8c9.6,19.6,18.2,39.9,25.8,60.6
		c-24.5,8.8-48.4,20-70.7,33.3c-54.9,32.7-95.1,74.7-111.8,116C62,376.7,35.2,319.4,35.2,256z M256,476.8
		c-47.2,0-91-14.9-126.9-40.2c11.1-37.6,48.9-78.4,102.7-110.4c19-11.3,41.1-22,65.4-30.7c17.1,53.8,27.7,110.7,31,169.1
		C305.5,472.5,281.2,476.8,256,476.8z M356.7,452.5c-4.1-57-14.7-112.5-31.8-165.7c47.5-13.1,100.3-17.4,150.3-4.5
		C466.4,356.5,420.5,419.7,356.7,452.5z"/>
	<path class="st1" d="M256,512c-68.2,0-132.4-26.7-180.8-75.1C26.7,388.4,0,324.2,0,256c0-68.2,26.7-132.4,75.1-180.8
		C123.6,26.7,187.8,0,256,0c141.2,0,256,114.8,256,256C512,397.2,397.2,512,256,512z M256,11.7c-65.1,0-126.3,25.5-172.6,71.7
		C37.2,129.7,11.7,191,11.7,256c0,65.1,25.5,126.3,71.7,172.6c46.2,46.2,107.5,71.7,172.6,71.7c134.7,0,244.3-109.6,244.3-244.3
		S390.7,11.7,256,11.7z M256,482.7c-46.9,0-92-14.3-130.3-41.2l-3.4-2.4l1.2-4c11.7-39.4,50.1-80.9,105.3-113.8
		c20.1-12,43-22.8,66.4-31.2l5.7-2.1l1.8,5.8c17.4,54.8,27.9,112.2,31.2,170.6l0.3,4.4l-4.2,1.5C306.2,478.5,281.3,482.7,256,482.7z
		 M136,434.3c35.6,24,77,36.6,120,36.6c22.5,0,44.7-3.5,66-10.4c-3.4-53.8-13-106.7-28.6-157.4c-20.7,7.8-40.8,17.4-58.6,28.1
		C184.7,361.1,148.2,399.3,136,434.3z M351.5,461.8l-0.6-8.9c-4.1-56.7-14.7-112-31.5-164.3l-1.9-5.8l5.9-1.6
		c54-14.9,107-16.5,153.3-4.5l5,1.3l-0.6,5.1c-9,74.8-54.4,140.1-121.7,174.7L351.5,461.8z M332.4,290.9
		c15.2,48.7,25,99.8,29.5,152.2c57.9-32.9,97.4-90.5,106.9-156.3C427.3,277.1,380.4,278.5,332.4,290.9z M107.3,427.2l-6.2-5.9
		c-22.4-21-40-45.8-52.4-73.8c-12.8-28.9-19.3-59.7-19.3-91.5c0-6.6,0.3-13.3,0.9-19.8l0.5-5.9l5.9,0.6c13.8,1.4,27.6,2.1,41.2,2.1
		c57,0,119.9-10.9,182-31.5l4.9-1.6l2.2,4.6c9.6,19.6,18.3,40.2,26,61.1l2,5.5l-5.6,2c-24.2,8.7-47.6,19.7-69.7,32.8
		c-53.2,31.7-93.1,73-109.3,113.1L107.3,427.2z M41.4,243.2c-0.3,4.3-0.4,8.6-0.4,12.8c0,30.2,6.2,59.4,18.3,86.8
		c10.6,24,25.3,45.5,43.7,64.1c19-39.9,58.8-80,110.7-110.9c21.1-12.5,43.3-23.2,66.2-31.8c-6.4-17-13.6-33.8-21.3-49.9
		c-61.7,19.9-124.1,30.5-180.8,30.5C65.9,244.8,53.6,244.2,41.4,243.2z M311.7,265.9l-1.9-5.1c-4-10.8-7.9-20.8-12-30.6
		c-4.7-11.1-9.2-21.1-13.7-30.4l-2.8-5.8l6-2.3c62.8-23.9,111.6-53.4,133.9-80.7l4.5-5.5l4.6,5.4c33.1,39.6,51.7,89.8,52.5,141.3
		l0.1,7.5l-7.3-1.7c-38.2-9-81.3-9.5-124.5-1.6c-10.8,1.9-22.2,4.6-34,7.9L311.7,265.9z M297.3,200.5c3.7,7.8,7.4,16.1,11.3,25.2
		c3.6,8.5,7,17.1,10.3,26.1c10.3-2.8,20.3-5,29.8-6.7c42-7.7,84-7.6,121.8,0.1c-2.2-44-18.1-86.5-45.2-121.2
		C392.4,159.9,329.2,187.9,297.3,200.5z M78,215.5c-13.1,0-25.9-0.6-38.1-1.9l-6.6-0.7l1.4-6.5c7.4-33.1,22.6-64.7,43.8-91.4
		c21-26.4,48-48.1,78.1-62.9l3.9-1.9l3,3.2c34.7,37.1,64.9,79,89.8,124.4l3.4,6.2l-6.7,2.2C190.8,205.5,131.1,215.5,78,215.5z
		 M47.7,202.6c56.9,4.6,124.5-4.3,191.7-25.3c-23-40.9-50.4-78.7-81.6-112.6c-27,13.9-51.2,33.8-70.2,57.7
		C69,146,55.2,173.6,47.7,202.6z M273.3,178.3l-2.4-4.5c-24.2-45.1-53.5-86.8-86.9-124l-6-6.7l8.6-2.8c22.3-7.3,45.7-10.9,69.5-10.9
		c56.8,0,111.2,21.2,153.2,59.7l3.9,3.6l-3.1,4.2c-14.8,20.2-57.2,51.8-131.8,79.7L273.3,178.3z M198.7,48.8
		c30.4,34.9,57.3,73.5,80,114.9c42.3-16.3,95.7-43.2,118.4-69.7C358,59.8,308.1,41,256,41C236.5,41,217.2,43.6,198.7,48.8z"/>
</g>
</svg>
