<?xml version="1.0" encoding="utf-8"?>
<!-- Generator: Adobe Illustrator 24.0.3, SVG Export Plug-In . SVG Version: 6.00 Build 0)  -->
<svg version="1.1" id="Bold" xmlns="http://www.w3.org/2000/svg" xmlns:xlink="http://www.w3.org/1999/xlink" x="0px" y="0px"
	 viewBox="0 0 512 512" style="enable-background:new 0 0 512 512;" xml:space="preserve">
<style type="text/css">
	.st0{fill:#F1F1F1;}
</style>
<path class="st0" d="M403.5,403.5L403.5,403.5L403.5,403.5l0.1-108.2c0-53-11.4-93.7-73.3-93.7c-29.7,0-49.7,16.3-57.9,31.8h-0.9
	v-26.9h-58.7v197h61.1V306c0-25.7,4.8-50.5,36.7-50.5c31.4,0,31.8,29.3,31.8,52.2v96H403.5z"/>
<path class="st0" d="M113.3,206.5h61.2v197h-61.2V206.5z"/>
<path class="st0" d="M143.9,108.5c-19.6,0-35.4,15.8-35.4,35.4s15.8,35.8,35.4,35.8s35.4-16.3,35.4-35.8
	C179.3,124.3,163.4,108.5,143.9,108.5z"/>
<g>
	<g>
		<path class="st0" d="M351.9,0H160C72,0,0,72,0,160v192c0,88,72,160,160,160h192c88,0,160-72,160-160V160C511.9,72,439.9,0,351.9,0
			z M160,463.9c-62.4,0-112-49.6-112-112V160C48,97.6,97.6,48,160,48h192c62.4,0,112,49.6,112,112v192c0,62.4-49.6,112-112,112H160z
			"/>
	</g>
</g>
</svg>
