<svg xmlns="http://www.w3.org/2000/svg" id="Layer_1" viewBox="0 0 551 263" width="551" height="263"><style>.st0{stroke-width:34.6476}.st0,.st1,.st2{fill:none;stroke:#000;stroke-linecap:round;stroke-linejoin:round;enable-background:new}.st1{stroke-width:34.2879}.st2{opacity:.86;stroke-width:34.6476}</style><path id="Line1" d="M274.8 10.3h1c14.3 1 26.6 6.4 36.4 15.9l4 3.9 1-5.5c1.2-6.7 7.1-11.5 13.9-11.5 7.8 0 14.1 6.3 14.1 14.1v135.5c0 7.8-6.3 14.1-14.1 14.1s-14.1-6.3-14.1-14.1c-.2-50.9-6-86.8-17.4-106.7-1.7-3-3.5-5.6-5.4-7.7l-5.3-6V160c0 41.2-20.2 74.4-54 88.8-10 4.3-20.6 6.5-30.6 6.5-13.9 0-25.9-4.2-34-12-10.5-10.1-13.1-24.8-7.2-40.5l.1-.2 15.2-37.9.5-1.2-.5-1.2-24.7-54.8-3.1-7-2.4 7.2c-4.5 13.4-11.4 33.6-22.1 48.2-7.4 10.1-18.7 16.8-32.6 19.6-4.2.8-8.6 1.3-13.1 1.3-7.3 0-14.4-1.2-20.6-3.4-30.2-10.8-48.8-37.4-51-72.9-1.7-27.1 6-51.3 21.8-68.1 12-12.7 27.5-20 42.7-20 23.5 0 39.2 12.7 46 21.8L95 49.3c-3.2-3.3-10.3-8.7-21.7-8.7-8.6 0-17.1 5.7-22.1 11.1-10.4 11.1-15.4 27.8-14.2 47 1.5 24.4 12.7 41 32.4 48.1 3.1 1.1 7.1 1.7 11.1 1.7 10 0 18.5-3.5 22.8-9.3 8.1-11.1 14-28.4 18.7-42.4 2.7-8 5-14.9 7.6-20.5.9-1.9 2.8-6 5.9-9.5 3.7-4.1 8.1-6.4 13-6.8h1.3c11.3 0 17.7 10.1 21.4 17.7.1.2.2.3.2.5L190 119l2.8 6.2 2.7-6.3 21.2-49.7c2.2-5.2 7.3-8.6 13-8.6 1.9 0 3.7.4 5.4 1.1 7.1 3 10.6 11.2 7.7 18.3l-53.2 132.7c-.6 1.7-2.6 7 .4 9.9 2.6 2.5 8.1 4.1 14.4 4.1 6.2 0 12.9-1.5 19.4-4.2 33.2-14.1 36.8-48.6 36.8-62.8V24.4c0-3.9 1.6-7.7 4.5-10.3 2.7-2.5 6.1-3.8 9.7-3.8m0-3c-4.3 0-8.5 1.6-11.7 4.6-3.5 3.2-5.5 7.8-5.5 12.5v135.5c0 13.6-3.4 46.6-35 60-6.9 2.9-13.2 4-18.3 4-6.2 0-10.7-1.6-12.4-3.2-1.3-1.3-.6-4.3.3-6.7l53.2-132.7c3.5-8.7-.7-18.6-9.4-22.2-2.1-.9-4.4-1.3-6.6-1.3-6.7 0-13 3.9-15.8 10.4l-21.2 49.7L174.3 77l-.3-.6c-2.4-4.9-9.6-19.3-24.1-19.3-.5 0-1 0-1.5.1-13.5.9-19.5 13.8-21.5 18-2.7 5.7-5 12.7-7.8 20.8-4.6 13.7-10.4 30.8-18.3 41.5-4.2 5.7-12.7 8.1-20.4 8.1-3.7 0-7.3-.6-10.1-1.5C52 137.3 41.5 121.6 40 98.5c-1.2-18.4 3.6-34.3 13.4-44.7 7.1-7.5 14.9-10.2 19.9-10.2 14.2 0 20.6 8.8 21.3 9.8-.1-.2-.2-.3-.2-.3L123.5 35c-6-9.5-23.2-25.7-50.2-25.7-16 0-32.4 7.7-44.9 21C12.1 47.7 4 72.7 5.8 100.7c2.3 36.8 21.6 64.3 53.1 75.6 6.6 2.3 14.1 3.5 21.6 3.5 4.6 0 9.2-.4 13.6-1.3 14.6-2.9 26.5-10 34.4-20.7 10.6-14.5 17.2-33.4 22.5-49l24.7 54.8-15.2 37.9c0 .1-.1.2-.1.3-6.4 16.8-3.5 32.7 7.9 43.7 8.8 8.5 21.7 12.8 36 12.8 10.2 0 21.1-2.2 31.8-6.7 35-14.9 55.9-49.1 55.9-91.6V50.2c1.7 2 3.4 4.3 5 7.3 11.1 19.5 16.8 54.9 17 105.3 0 9.4 7.7 17.1 17.1 17.1 9.5 0 17.1-7.7 17.1-17.1V27.2c0-9.5-7.7-17.1-17.1-17.1-8.4 0-15.4 6-16.9 14C303.9 14 291.1 8.4 276 7.3h-1.2zM94.6 53.5z"/><path id="Line2" d="M479.1 57.7c11.3 0 21.3 2.7 29.8 8.2l1.8 1.1 1.7-1.3c2.5-1.9 5.5-2.9 8.6-2.9.4 0 .9 0 1.3.1 7.8.7 13.5 7.6 12.8 15.4-1 11.1-1.6 21.8-1.5 31.9v.2c.9 24.6 2.9 39.5 6 44.3 4.3 6.4 2.6 15.1-3.7 19.5-2.4 1.6-5.2 2.5-8 2.5-3 0-6-1-8.4-2.7l-2.3-1.7-1.8 2.3c-7 8.9-15.6 15.9-25.7 20.6-9.9 4.7-20.8 7-32.2 7-23.9 0-48.3-10.6-66.7-29-.4-.4-.7-.8-1.1-1.2L349 121c-4.5-5.6-4-13.7 1-18.8l35.8-36.1c2.7-2.7 6.2-4.2 10-4.2s7.3 1.5 10 4.1c5.5 5.5 5.6 14.5.1 20l-25.1 25.3-1.9 1.9 1.7 2.1 30.6 38.3.1.1.1.1c8.9 8.7 19.5 15 30.6 18l14.7 4.1-12.1-9.3c-2.3-1.8-4.5-3.8-6.6-6-11.3-12.2-17-29.4-15.7-47.2 1.9-24.3 13.8-37.6 23.4-44.6 13.6-10.1 27.9-11.1 33.4-11.1m-4.3 90.9c8.6 0 15.2-2.4 20.1-7.4 3.2-3.2 8.8-10.8 10-25.2v-.2c0-3.3-.1-6.8-.4-10.2v-.3l-.1-.3c-.5-1.7-1.9-6-5.1-10-4.7-6-11.3-8.9-20.2-8.9-4.2 0-11.2 1.5-16.9 5.6-7 5.1-10.9 12.9-11.7 23.8-.8 9.8 2.3 19.4 8.2 25.8 3 3.2 8.4 7.3 16.1 7.3m4.3-93.9c-5.8 0-20.8 1.1-35.3 11.6-10.1 7.3-22.6 21.4-24.6 46.8-1.4 18.6 4.6 36.6 16.5 49.5 2.2 2.3 4.5 4.5 7 6.4-10.4-2.9-20.6-8.7-29.3-17.3l-30.6-38.3 25-25.4c6.7-6.7 6.6-17.6-.1-24.2-3.3-3.3-7.7-5-12.1-5s-8.8 1.7-12.2 5.1L347.6 100c-6.1 6.2-6.7 16-1.2 22.8l40.7 51c.4.5.8 1 1.3 1.4 19.5 19.5 44.6 29.9 68.9 29.9 11.6 0 23-2.4 33.5-7.3 10.6-5 19.6-12.3 26.8-21.5 3 2.2 6.5 3.3 10.2 3.3 3.4 0 6.8-1 9.7-3 7.7-5.3 9.7-15.9 4.5-23.6-1.6-2.4-4.3-11.2-5.5-42.8 0-9.2.4-19.7 1.5-31.6.9-9.4-6-17.8-15.5-18.7-.5-.1-1.1-.1-1.6-.1-3.9 0-7.5 1.3-10.4 3.5-8.1-5.2-18.5-8.6-31.4-8.6zm-4.3 90.9c-6.6 0-11.3-3.5-14-6.4-5.4-5.8-8.1-14.6-7.4-23.5.8-10 4.2-17.1 10.5-21.6 5.2-3.7 11.4-5.1 15.2-5.1 8 0 13.7 2.5 17.8 7.8 2.9 3.6 4.2 7.5 4.6 9 .3 3.4.4 6.8.4 10-.7 8.2-3.4 17.5-9.2 23.4-4.2 4.2-10.1 6.4-17.9 6.4z"/><path id="L" d="M274.4 163.8V25.4" class="st0"/><path id="C" d="M108.6 45.1s-11-17.6-35.7-17.6c-23.3 0-53.4 25.2-50.4 73.1 2.1 33.4 19.7 52.6 41.7 60.5 14.6 5.2 38.6 3.1 50.1-12.5" class="st1"/><path id="Y" d="M155.5 79.9l37.5 82.3 36.6-85.6-53.3 132.9" class="st1"/><path id="K1" d="M330.7 27.6v135.5" class="st0"/><path id="K2" d="M395.8 77L360 113.1l40.7 51" class="st0"/><path id="A1_1_" d="M518.4 104.7s-5.9-31.1-39.4-31.1c-12.9 0-40.1 8-42.8 42.5-2 25.8 15.1 48.4 38.5 48.4 35.3 0 44.7-31.5 44.5-52.2.8 21.9 2.5 43.1 8.4 51.9-6-8.4-11.1-39.6-6.8-85.5" class="st0"/><path id="A2" d="M519.3 111.2c.8 21.9 2.5 43.1 8.4 51.9-6-8.4-11.1-39.6-6.8-85.5" class="st2"/></svg>